<?xml version="1.0" encoding="UTF-8" standalone="no"?>
<!DOCTYPE svg PUBLIC "-//W3C//DTD SVG 1.1//EN"
 "http://www.w3.org/Graphics/SVG/1.1/DTD/svg11.dtd">
<!-- Generated by graphviz version 2.43.0 (0)
 -->
<!-- Title: %3 Pages: 1 -->
<svg width="2921pt" height="476pt"
 viewBox="0.00 0.00 2921.21 476.00" xmlns="http://www.w3.org/2000/svg" xmlns:xlink="http://www.w3.org/1999/xlink">
<g id="graph0" class="graph" transform="scale(1 1) rotate(0) translate(4 472)">
<title>%3</title>
<polygon fill="white" stroke="transparent" points="-4,4 -4,-472 2917.21,-472 2917.21,4 -4,4"/>
<!-- [root] aws_ebs_volume.awsvolumeB (expand) -->
<g id="node1" class="node">
<title>[root] aws_ebs_volume.awsvolumeB (expand)</title>
<polygon fill="none" stroke="black" points="1287.16,-108 1058.16,-108 1058.16,-72 1287.16,-72 1287.16,-108"/>
<text text-anchor="middle" x="1172.66" y="-86.3" font-family="Times,serif" font-size="14.00">aws_ebs_volume.awsvolumeB</text>
</g>
<!-- [root] provider[&quot;registry.terraform.io/hashicorp/aws&quot;] -->
<g id="node27" class="node">
<title>[root] provider[&quot;registry.terraform.io/hashicorp/aws&quot;]</title>
<polygon fill="none" stroke="black" points="981.66,-36 656.4,-18 981.66,0 1306.92,-18 981.66,-36"/>
<text text-anchor="middle" x="981.66" y="-14.3" font-family="Times,serif" font-size="14.00">provider[&quot;registry.terraform.io/hashicorp/aws&quot;]</text>
</g>
<!-- [root] aws_ebs_volume.awsvolumeB (expand)&#45;&gt;[root] provider[&quot;registry.terraform.io/hashicorp/aws&quot;] -->
<g id="edge1" class="edge">
<title>[root] aws_ebs_volume.awsvolumeB (expand)&#45;&gt;[root] provider[&quot;registry.terraform.io/hashicorp/aws&quot;]</title>
<path fill="none" stroke="black" d="M1125.94,-71.88C1097.36,-61.4 1060.82,-48.01 1031.66,-37.33"/>
<polygon fill="black" stroke="black" points="1032.67,-33.97 1022.08,-33.81 1030.26,-40.54 1032.67,-33.97"/>
</g>
<!-- [root] aws_ebs_volume.awsvolumeC (expand) -->
<g id="node2" class="node">
<title>[root] aws_ebs_volume.awsvolumeC (expand)</title>
<polygon fill="none" stroke="black" points="1557.16,-108 1328.16,-108 1328.16,-72 1557.16,-72 1557.16,-108"/>
<text text-anchor="middle" x="1442.66" y="-86.3" font-family="Times,serif" font-size="14.00">aws_ebs_volume.awsvolumeC</text>
</g>
<!-- [root] aws_ebs_volume.awsvolumeC (expand)&#45;&gt;[root] provider[&quot;registry.terraform.io/hashicorp/aws&quot;] -->
<g id="edge2" class="edge">
<title>[root] aws_ebs_volume.awsvolumeC (expand)&#45;&gt;[root] provider[&quot;registry.terraform.io/hashicorp/aws&quot;]</title>
<path fill="none" stroke="black" d="M1330.48,-71.97C1251.82,-60.02 1147.95,-44.25 1074.06,-33.03"/>
<polygon fill="black" stroke="black" points="1074.25,-29.52 1063.84,-31.48 1073.2,-36.44 1074.25,-29.52"/>
</g>
<!-- [root] aws_ebs_volume.awsvolumeD (expand) -->
<g id="node3" class="node">
<title>[root] aws_ebs_volume.awsvolumeD (expand)</title>
<polygon fill="none" stroke="black" points="653.66,-252 423.66,-252 423.66,-216 653.66,-216 653.66,-252"/>
<text text-anchor="middle" x="538.66" y="-230.3" font-family="Times,serif" font-size="14.00">aws_ebs_volume.awsvolumeD</text>
</g>
<!-- [root] aws_ebs_volume.awsvolumeD (expand)&#45;&gt;[root] provider[&quot;registry.terraform.io/hashicorp/aws&quot;] -->
<g id="edge3" class="edge">
<title>[root] aws_ebs_volume.awsvolumeD (expand)&#45;&gt;[root] provider[&quot;registry.terraform.io/hashicorp/aws&quot;]</title>
<path fill="none" stroke="black" d="M546.67,-215.76C565.24,-176.13 610.63,-81.22 623.66,-72 655.63,-49.37 741.36,-36.21 820.91,-28.67"/>
<polygon fill="black" stroke="black" points="821.44,-32.13 831.08,-27.73 820.8,-25.16 821.44,-32.13"/>
</g>
<!-- [root] aws_ebs_volume.awsvolumeE (expand) -->
<g id="node4" class="node">
<title>[root] aws_ebs_volume.awsvolumeE (expand)</title>
<polygon fill="none" stroke="black" points="939.16,-252 710.16,-252 710.16,-216 939.16,-216 939.16,-252"/>
<text text-anchor="middle" x="824.66" y="-230.3" font-family="Times,serif" font-size="14.00">aws_ebs_volume.awsvolumeE</text>
</g>
<!-- [root] aws_ebs_volume.awsvolumeE (expand)&#45;&gt;[root] provider[&quot;registry.terraform.io/hashicorp/aws&quot;] -->
<g id="edge4" class="edge">
<title>[root] aws_ebs_volume.awsvolumeE (expand)&#45;&gt;[root] provider[&quot;registry.terraform.io/hashicorp/aws&quot;]</title>
<path fill="none" stroke="black" d="M840.09,-215.68C848.99,-205.49 860.24,-192.24 869.66,-180 905.53,-133.38 944,-76.36 965.21,-44.21"/>
<polygon fill="black" stroke="black" points="968.16,-46.11 970.73,-35.83 962.31,-42.26 968.16,-46.11"/>
</g>
<!-- [root] aws_ebs_volume.awsvolumeF (expand) -->
<g id="node5" class="node">
<title>[root] aws_ebs_volume.awsvolumeF (expand)</title>
<polygon fill="none" stroke="black" points="1185.66,-252 957.66,-252 957.66,-216 1185.66,-216 1185.66,-252"/>
<text text-anchor="middle" x="1071.66" y="-230.3" font-family="Times,serif" font-size="14.00">aws_ebs_volume.awsvolumeF</text>
</g>
<!-- [root] aws_ebs_volume.awsvolumeF (expand)&#45;&gt;[root] provider[&quot;registry.terraform.io/hashicorp/aws&quot;] -->
<g id="edge5" class="edge">
<title>[root] aws_ebs_volume.awsvolumeF (expand)&#45;&gt;[root] provider[&quot;registry.terraform.io/hashicorp/aws&quot;]</title>
<path fill="none" stroke="black" d="M1064.45,-215.85C1048.7,-178.41 1011.18,-89.19 992.55,-44.88"/>
<polygon fill="black" stroke="black" points="995.76,-43.5 988.66,-35.64 989.31,-46.22 995.76,-43.5"/>
</g>
<!-- [root] aws_iam_instance_profile.dev&#45;resources&#45;iam&#45;profile (expand) -->
<g id="node6" class="node">
<title>[root] aws_iam_instance_profile.dev&#45;resources&#45;iam&#45;profile (expand)</title>
<polygon fill="none" stroke="black" points="1917.66,-180 1535.66,-180 1535.66,-144 1917.66,-144 1917.66,-180"/>
<text text-anchor="middle" x="1726.66" y="-158.3" font-family="Times,serif" font-size="14.00">aws_iam_instance_profile.dev&#45;resources&#45;iam&#45;profile</text>
</g>
<!-- [root] aws_iam_role.dev&#45;resources&#45;iam&#45;role (expand) -->
<g id="node7" class="node">
<title>[root] aws_iam_role.dev&#45;resources&#45;iam&#45;role (expand)</title>
<polygon fill="none" stroke="black" points="1866.16,-108 1587.16,-108 1587.16,-72 1866.16,-72 1866.16,-108"/>
<text text-anchor="middle" x="1726.66" y="-86.3" font-family="Times,serif" font-size="14.00">aws_iam_role.dev&#45;resources&#45;iam&#45;role</text>
</g>
<!-- [root] aws_iam_instance_profile.dev&#45;resources&#45;iam&#45;profile (expand)&#45;&gt;[root] aws_iam_role.dev&#45;resources&#45;iam&#45;role (expand) -->
<g id="edge6" class="edge">
<title>[root] aws_iam_instance_profile.dev&#45;resources&#45;iam&#45;profile (expand)&#45;&gt;[root] aws_iam_role.dev&#45;resources&#45;iam&#45;role (expand)</title>
<path fill="none" stroke="black" d="M1726.66,-143.7C1726.66,-135.98 1726.66,-126.71 1726.66,-118.11"/>
<polygon fill="black" stroke="black" points="1730.16,-118.1 1726.66,-108.1 1723.16,-118.1 1730.16,-118.1"/>
</g>
<!-- [root] aws_iam_role.dev&#45;resources&#45;iam&#45;role (expand)&#45;&gt;[root] provider[&quot;registry.terraform.io/hashicorp/aws&quot;] -->
<g id="edge7" class="edge">
<title>[root] aws_iam_role.dev&#45;resources&#45;iam&#45;role (expand)&#45;&gt;[root] provider[&quot;registry.terraform.io/hashicorp/aws&quot;]</title>
<path fill="none" stroke="black" d="M1587.05,-74.04C1580.16,-73.34 1573.33,-72.66 1566.66,-72 1410.6,-56.64 1230.96,-40.61 1112.37,-30.26"/>
<polygon fill="black" stroke="black" points="1112.42,-26.75 1102.15,-29.37 1111.81,-33.72 1112.42,-26.75"/>
</g>
<!-- [root] aws_iam_role_policy_attachment.dev&#45;resources&#45;ssm&#45;policy (expand) -->
<g id="node8" class="node">
<title>[root] aws_iam_role_policy_attachment.dev&#45;resources&#45;ssm&#45;policy (expand)</title>
<polygon fill="none" stroke="black" points="2369.16,-180 1936.16,-180 1936.16,-144 2369.16,-144 2369.16,-180"/>
<text text-anchor="middle" x="2152.66" y="-158.3" font-family="Times,serif" font-size="14.00">aws_iam_role_policy_attachment.dev&#45;resources&#45;ssm&#45;policy</text>
</g>
<!-- [root] aws_iam_role_policy_attachment.dev&#45;resources&#45;ssm&#45;policy (expand)&#45;&gt;[root] aws_iam_role.dev&#45;resources&#45;iam&#45;role (expand) -->
<g id="edge8" class="edge">
<title>[root] aws_iam_role_policy_attachment.dev&#45;resources&#45;ssm&#45;policy (expand)&#45;&gt;[root] aws_iam_role.dev&#45;resources&#45;iam&#45;role (expand)</title>
<path fill="none" stroke="black" d="M2048.99,-143.97C1985.99,-133.61 1905.48,-120.38 1840.68,-109.74"/>
<polygon fill="black" stroke="black" points="1840.86,-106.22 1830.42,-108.05 1839.72,-113.13 1840.86,-106.22"/>
</g>
<!-- [root] aws_instance.Domino_instance (expand) -->
<g id="node9" class="node">
<title>[root] aws_instance.Domino_instance (expand)</title>
<polygon fill="none" stroke="black" points="1479.16,-252 1242.16,-252 1242.16,-216 1479.16,-216 1479.16,-252"/>
<text text-anchor="middle" x="1360.66" y="-230.3" font-family="Times,serif" font-size="14.00">aws_instance.Domino_instance</text>
</g>
<!-- [root] aws_instance.Domino_instance (expand)&#45;&gt;[root] aws_iam_instance_profile.dev&#45;resources&#45;iam&#45;profile (expand) -->
<g id="edge9" class="edge">
<title>[root] aws_instance.Domino_instance (expand)&#45;&gt;[root] aws_iam_instance_profile.dev&#45;resources&#45;iam&#45;profile (expand)</title>
<path fill="none" stroke="black" d="M1449.73,-215.97C1503.52,-205.68 1572.17,-192.55 1627.67,-181.93"/>
<polygon fill="black" stroke="black" points="1628.35,-185.37 1637.51,-180.05 1627.03,-178.49 1628.35,-185.37"/>
</g>
<!-- [root] aws_security_group.web_sg (expand) -->
<g id="node13" class="node">
<title>[root] aws_security_group.web_sg (expand)</title>
<polygon fill="none" stroke="black" points="1463.16,-180 1248.16,-180 1248.16,-144 1463.16,-144 1463.16,-180"/>
<text text-anchor="middle" x="1355.66" y="-158.3" font-family="Times,serif" font-size="14.00">aws_security_group.web_sg</text>
</g>
<!-- [root] aws_instance.Domino_instance (expand)&#45;&gt;[root] aws_security_group.web_sg (expand) -->
<g id="edge10" class="edge">
<title>[root] aws_instance.Domino_instance (expand)&#45;&gt;[root] aws_security_group.web_sg (expand)</title>
<path fill="none" stroke="black" d="M1359.42,-215.7C1358.87,-207.98 1358.21,-198.71 1357.6,-190.11"/>
<polygon fill="black" stroke="black" points="1361.09,-189.83 1356.88,-180.1 1354.1,-190.33 1361.09,-189.83"/>
</g>
<!-- [root] aws_subnet.some_public_subnet (expand) -->
<g id="node15" class="node">
<title>[root] aws_subnet.some_public_subnet (expand)</title>
<polygon fill="none" stroke="black" points="860.66,-180 612.66,-180 612.66,-144 860.66,-144 860.66,-180"/>
<text text-anchor="middle" x="736.66" y="-158.3" font-family="Times,serif" font-size="14.00">aws_subnet.some_public_subnet</text>
</g>
<!-- [root] aws_instance.Domino_instance (expand)&#45;&gt;[root] aws_subnet.some_public_subnet (expand) -->
<g id="edge11" class="edge">
<title>[root] aws_instance.Domino_instance (expand)&#45;&gt;[root] aws_subnet.some_public_subnet (expand)</title>
<path fill="none" stroke="black" d="M1241.82,-219.67C1135.95,-207.79 981.16,-190.43 870.86,-178.05"/>
<polygon fill="black" stroke="black" points="870.99,-174.55 860.66,-176.91 870.21,-181.5 870.99,-174.55"/>
</g>
<!-- [root] data.cloudinit_config.server_config (expand) -->
<g id="node23" class="node">
<title>[root] data.cloudinit_config.server_config (expand)</title>
<polygon fill="none" stroke="black" points="2687.66,-180 2423.66,-180 2423.66,-144 2687.66,-144 2687.66,-180"/>
<text text-anchor="middle" x="2555.66" y="-158.3" font-family="Times,serif" font-size="14.00">data.cloudinit_config.server_config</text>
</g>
<!-- [root] aws_instance.Domino_instance (expand)&#45;&gt;[root] data.cloudinit_config.server_config (expand) -->
<g id="edge12" class="edge">
<title>[root] aws_instance.Domino_instance (expand)&#45;&gt;[root] data.cloudinit_config.server_config (expand)</title>
<path fill="none" stroke="black" d="M1479.49,-228.5C1669.57,-220.92 2053.69,-204.05 2378.66,-180 2389.85,-179.17 2401.43,-178.24 2413.07,-177.24"/>
<polygon fill="black" stroke="black" points="2413.64,-180.7 2423.3,-176.35 2413.04,-173.73 2413.64,-180.7"/>
</g>
<!-- [root] aws_internet_gateway.some_ig (expand) -->
<g id="node10" class="node">
<title>[root] aws_internet_gateway.some_ig (expand)</title>
<polygon fill="none" stroke="black" points="554.66,-180 318.66,-180 318.66,-144 554.66,-144 554.66,-180"/>
<text text-anchor="middle" x="436.66" y="-158.3" font-family="Times,serif" font-size="14.00">aws_internet_gateway.some_ig</text>
</g>
<!-- [root] aws_vpc.some_custom_vpc (expand) -->
<g id="node21" class="node">
<title>[root] aws_vpc.some_custom_vpc (expand)</title>
<polygon fill="none" stroke="black" points="840.66,-108 632.66,-108 632.66,-72 840.66,-72 840.66,-108"/>
<text text-anchor="middle" x="736.66" y="-86.3" font-family="Times,serif" font-size="14.00">aws_vpc.some_custom_vpc</text>
</g>
<!-- [root] aws_internet_gateway.some_ig (expand)&#45;&gt;[root] aws_vpc.some_custom_vpc (expand) -->
<g id="edge13" class="edge">
<title>[root] aws_internet_gateway.some_ig (expand)&#45;&gt;[root] aws_vpc.some_custom_vpc (expand)</title>
<path fill="none" stroke="black" d="M509.67,-143.97C553.21,-133.8 608.64,-120.87 653.82,-110.33"/>
<polygon fill="black" stroke="black" points="654.65,-113.73 663.59,-108.05 653.06,-106.91 654.65,-113.73"/>
</g>
<!-- [root] aws_route_table.public_rt (expand) -->
<g id="node11" class="node">
<title>[root] aws_route_table.public_rt (expand)</title>
<polygon fill="none" stroke="black" points="368.66,-252 168.66,-252 168.66,-216 368.66,-216 368.66,-252"/>
<text text-anchor="middle" x="268.66" y="-230.3" font-family="Times,serif" font-size="14.00">aws_route_table.public_rt</text>
</g>
<!-- [root] aws_route_table.public_rt (expand)&#45;&gt;[root] aws_internet_gateway.some_ig (expand) -->
<g id="edge14" class="edge">
<title>[root] aws_route_table.public_rt (expand)&#45;&gt;[root] aws_internet_gateway.some_ig (expand)</title>
<path fill="none" stroke="black" d="M309.76,-215.88C332.83,-206.26 361.8,-194.19 386.23,-184.01"/>
<polygon fill="black" stroke="black" points="387.81,-187.15 395.7,-180.07 385.12,-180.68 387.81,-187.15"/>
</g>
<!-- [root] aws_route_table_association.public_1_rt_a (expand) -->
<g id="node12" class="node">
<title>[root] aws_route_table_association.public_1_rt_a (expand)</title>
<polygon fill="none" stroke="black" points="391.16,-324 74.16,-324 74.16,-288 391.16,-288 391.16,-324"/>
<text text-anchor="middle" x="232.66" y="-302.3" font-family="Times,serif" font-size="14.00">aws_route_table_association.public_1_rt_a</text>
</g>
<!-- [root] aws_route_table_association.public_1_rt_a (expand)&#45;&gt;[root] aws_route_table.public_rt (expand) -->
<g id="edge15" class="edge">
<title>[root] aws_route_table_association.public_1_rt_a (expand)&#45;&gt;[root] aws_route_table.public_rt (expand)</title>
<path fill="none" stroke="black" d="M241.56,-287.7C245.66,-279.73 250.61,-270.1 255.15,-261.26"/>
<polygon fill="black" stroke="black" points="258.4,-262.6 259.86,-252.1 252.18,-259.4 258.4,-262.6"/>
</g>
<!-- [root] aws_route_table_association.public_1_rt_a (expand)&#45;&gt;[root] aws_subnet.some_public_subnet (expand) -->
<g id="edge16" class="edge">
<title>[root] aws_route_table_association.public_1_rt_a (expand)&#45;&gt;[root] aws_subnet.some_public_subnet (expand)</title>
<path fill="none" stroke="black" d="M391.46,-288.19C508.88,-275.31 650.46,-258.66 662.66,-252 676.64,-244.37 701.68,-212.06 718.73,-188.56"/>
<polygon fill="black" stroke="black" points="721.62,-190.53 724.61,-180.36 715.93,-186.45 721.62,-190.53"/>
</g>
<!-- [root] aws_security_group.web_sg (expand)&#45;&gt;[root] aws_vpc.some_custom_vpc (expand) -->
<g id="edge17" class="edge">
<title>[root] aws_security_group.web_sg (expand)&#45;&gt;[root] aws_vpc.some_custom_vpc (expand)</title>
<path fill="none" stroke="black" d="M1247.84,-148.81C1136.71,-136.24 964.15,-116.73 850.77,-103.9"/>
<polygon fill="black" stroke="black" points="851,-100.41 840.67,-102.76 850.21,-107.36 851,-100.41"/>
</g>
<!-- [root] aws_subnet.some_private_subnet (expand) -->
<g id="node14" class="node">
<title>[root] aws_subnet.some_private_subnet (expand)</title>
<polygon fill="none" stroke="black" points="297.16,-180 42.16,-180 42.16,-144 297.16,-144 297.16,-180"/>
<text text-anchor="middle" x="169.66" y="-158.3" font-family="Times,serif" font-size="14.00">aws_subnet.some_private_subnet</text>
</g>
<!-- [root] aws_subnet.some_private_subnet (expand)&#45;&gt;[root] aws_vpc.some_custom_vpc (expand) -->
<g id="edge18" class="edge">
<title>[root] aws_subnet.some_private_subnet (expand)&#45;&gt;[root] aws_vpc.some_custom_vpc (expand)</title>
<path fill="none" stroke="black" d="M297.26,-145.25C394.78,-133.21 528.01,-116.76 622.13,-105.14"/>
<polygon fill="black" stroke="black" points="622.76,-108.59 632.26,-103.89 621.91,-101.64 622.76,-108.59"/>
</g>
<!-- [root] aws_subnet.some_public_subnet (expand)&#45;&gt;[root] aws_vpc.some_custom_vpc (expand) -->
<g id="edge19" class="edge">
<title>[root] aws_subnet.some_public_subnet (expand)&#45;&gt;[root] aws_vpc.some_custom_vpc (expand)</title>
<path fill="none" stroke="black" d="M736.66,-143.7C736.66,-135.98 736.66,-126.71 736.66,-118.11"/>
<polygon fill="black" stroke="black" points="740.16,-118.1 736.66,-108.1 733.16,-118.1 740.16,-118.1"/>
</g>
<!-- [root] aws_volume_attachment.volumeB (expand) -->
<g id="node16" class="node">
<title>[root] aws_volume_attachment.volumeB (expand)</title>
<polygon fill="none" stroke="black" points="1496.66,-324 1238.66,-324 1238.66,-288 1496.66,-288 1496.66,-324"/>
<text text-anchor="middle" x="1367.66" y="-302.3" font-family="Times,serif" font-size="14.00">aws_volume_attachment.volumeB</text>
</g>
<!-- [root] aws_volume_attachment.volumeB (expand)&#45;&gt;[root] aws_ebs_volume.awsvolumeB (expand) -->
<g id="edge20" class="edge">
<title>[root] aws_volume_attachment.volumeB (expand)&#45;&gt;[root] aws_ebs_volume.awsvolumeB (expand)</title>
<path fill="none" stroke="black" d="M1292.43,-287.96C1270.9,-280.01 1248.9,-268.52 1232.66,-252 1196.28,-214.98 1181.64,-153.91 1175.99,-118.58"/>
<polygon fill="black" stroke="black" points="1179.42,-117.88 1174.51,-108.5 1172.5,-118.9 1179.42,-117.88"/>
</g>
<!-- [root] aws_volume_attachment.volumeB (expand)&#45;&gt;[root] aws_instance.Domino_instance (expand) -->
<g id="edge21" class="edge">
<title>[root] aws_volume_attachment.volumeB (expand)&#45;&gt;[root] aws_instance.Domino_instance (expand)</title>
<path fill="none" stroke="black" d="M1365.93,-287.7C1365.16,-279.98 1364.23,-270.71 1363.37,-262.11"/>
<polygon fill="black" stroke="black" points="1366.85,-261.71 1362.37,-252.1 1359.88,-262.4 1366.85,-261.71"/>
</g>
<!-- [root] aws_volume_attachment.volumeC (expand) -->
<g id="node17" class="node">
<title>[root] aws_volume_attachment.volumeC (expand)</title>
<polygon fill="none" stroke="black" points="1848.66,-324 1590.66,-324 1590.66,-288 1848.66,-288 1848.66,-324"/>
<text text-anchor="middle" x="1719.66" y="-302.3" font-family="Times,serif" font-size="14.00">aws_volume_attachment.volumeC</text>
</g>
<!-- [root] aws_volume_attachment.volumeC (expand)&#45;&gt;[root] aws_ebs_volume.awsvolumeC (expand) -->
<g id="edge22" class="edge">
<title>[root] aws_volume_attachment.volumeC (expand)&#45;&gt;[root] aws_ebs_volume.awsvolumeC (expand)</title>
<path fill="none" stroke="black" d="M1688.34,-287.85C1648.81,-265.51 1579.57,-224.07 1526.66,-180 1503.2,-160.46 1479.6,-134.8 1463.42,-116.06"/>
<polygon fill="black" stroke="black" points="1465.9,-113.57 1456.75,-108.24 1460.57,-118.12 1465.9,-113.57"/>
</g>
<!-- [root] aws_volume_attachment.volumeC (expand)&#45;&gt;[root] aws_instance.Domino_instance (expand) -->
<g id="edge23" class="edge">
<title>[root] aws_volume_attachment.volumeC (expand)&#45;&gt;[root] aws_instance.Domino_instance (expand)</title>
<path fill="none" stroke="black" d="M1632.3,-287.97C1579.64,-277.7 1512.47,-264.6 1458.1,-254"/>
<polygon fill="black" stroke="black" points="1458.59,-250.53 1448.1,-252.05 1457.25,-257.4 1458.59,-250.53"/>
</g>
<!-- [root] aws_volume_attachment.volumeD (expand) -->
<g id="node18" class="node">
<title>[root] aws_volume_attachment.volumeD (expand)</title>
<polygon fill="none" stroke="black" points="668.16,-324 409.16,-324 409.16,-288 668.16,-288 668.16,-324"/>
<text text-anchor="middle" x="538.66" y="-302.3" font-family="Times,serif" font-size="14.00">aws_volume_attachment.volumeD</text>
</g>
<!-- [root] aws_volume_attachment.volumeD (expand)&#45;&gt;[root] aws_ebs_volume.awsvolumeD (expand) -->
<g id="edge24" class="edge">
<title>[root] aws_volume_attachment.volumeD (expand)&#45;&gt;[root] aws_ebs_volume.awsvolumeD (expand)</title>
<path fill="none" stroke="black" d="M538.66,-287.7C538.66,-279.98 538.66,-270.71 538.66,-262.11"/>
<polygon fill="black" stroke="black" points="542.16,-262.1 538.66,-252.1 535.16,-262.1 542.16,-262.1"/>
</g>
<!-- [root] aws_volume_attachment.volumeD (expand)&#45;&gt;[root] aws_instance.Domino_instance (expand) -->
<g id="edge25" class="edge">
<title>[root] aws_volume_attachment.volumeD (expand)&#45;&gt;[root] aws_instance.Domino_instance (expand)</title>
<path fill="none" stroke="black" d="M668.49,-288.91C671.57,-288.59 674.64,-288.29 677.66,-288 906.94,-266.01 965.17,-271.74 1194.66,-252 1206.73,-250.96 1219.29,-249.81 1231.85,-248.61"/>
<polygon fill="black" stroke="black" points="1232.3,-252.08 1241.92,-247.63 1231.63,-245.11 1232.3,-252.08"/>
</g>
<!-- [root] aws_volume_attachment.volumeE (expand) -->
<g id="node19" class="node">
<title>[root] aws_volume_attachment.volumeE (expand)</title>
<polygon fill="none" stroke="black" points="944.66,-324 686.66,-324 686.66,-288 944.66,-288 944.66,-324"/>
<text text-anchor="middle" x="815.66" y="-302.3" font-family="Times,serif" font-size="14.00">aws_volume_attachment.volumeE</text>
</g>
<!-- [root] aws_volume_attachment.volumeE (expand)&#45;&gt;[root] aws_ebs_volume.awsvolumeE (expand) -->
<g id="edge26" class="edge">
<title>[root] aws_volume_attachment.volumeE (expand)&#45;&gt;[root] aws_ebs_volume.awsvolumeE (expand)</title>
<path fill="none" stroke="black" d="M817.89,-287.7C818.88,-279.98 820.07,-270.71 821.17,-262.11"/>
<polygon fill="black" stroke="black" points="824.66,-262.47 822.46,-252.1 817.71,-261.58 824.66,-262.47"/>
</g>
<!-- [root] aws_volume_attachment.volumeE (expand)&#45;&gt;[root] aws_instance.Domino_instance (expand) -->
<g id="edge27" class="edge">
<title>[root] aws_volume_attachment.volumeE (expand)&#45;&gt;[root] aws_instance.Domino_instance (expand)</title>
<path fill="none" stroke="black" d="M944.82,-288.41C1031.41,-277.29 1145.01,-262.7 1231.59,-251.58"/>
<polygon fill="black" stroke="black" points="1232.27,-255.02 1241.74,-250.27 1231.38,-248.08 1232.27,-255.02"/>
</g>
<!-- [root] aws_volume_attachment.volumeF (expand) -->
<g id="node20" class="node">
<title>[root] aws_volume_attachment.volumeF (expand)</title>
<polygon fill="none" stroke="black" points="1220.16,-324 963.16,-324 963.16,-288 1220.16,-288 1220.16,-324"/>
<text text-anchor="middle" x="1091.66" y="-302.3" font-family="Times,serif" font-size="14.00">aws_volume_attachment.volumeF</text>
</g>
<!-- [root] aws_volume_attachment.volumeF (expand)&#45;&gt;[root] aws_ebs_volume.awsvolumeF (expand) -->
<g id="edge28" class="edge">
<title>[root] aws_volume_attachment.volumeF (expand)&#45;&gt;[root] aws_ebs_volume.awsvolumeF (expand)</title>
<path fill="none" stroke="black" d="M1086.72,-287.7C1084.49,-279.9 1081.81,-270.51 1079.33,-261.83"/>
<polygon fill="black" stroke="black" points="1082.66,-260.76 1076.55,-252.1 1075.93,-262.68 1082.66,-260.76"/>
</g>
<!-- [root] aws_volume_attachment.volumeF (expand)&#45;&gt;[root] aws_instance.Domino_instance (expand) -->
<g id="edge29" class="edge">
<title>[root] aws_volume_attachment.volumeF (expand)&#45;&gt;[root] aws_instance.Domino_instance (expand)</title>
<path fill="none" stroke="black" d="M1157.12,-287.97C1195.77,-277.91 1244.85,-265.14 1285.13,-254.65"/>
<polygon fill="black" stroke="black" points="1286.11,-258.02 1294.91,-252.11 1284.35,-251.24 1286.11,-258.02"/>
</g>
<!-- [root] aws_vpc.some_custom_vpc (expand)&#45;&gt;[root] provider[&quot;registry.terraform.io/hashicorp/aws&quot;] -->
<g id="edge30" class="edge">
<title>[root] aws_vpc.some_custom_vpc (expand)&#45;&gt;[root] provider[&quot;registry.terraform.io/hashicorp/aws&quot;]</title>
<path fill="none" stroke="black" d="M796.28,-71.97C834.38,-61.08 883.61,-47.02 921.76,-36.12"/>
<polygon fill="black" stroke="black" points="923.05,-39.39 931.7,-33.27 921.13,-32.66 923.05,-39.39"/>
</g>
<!-- [root] aws_vpc_dhcp_options.dns_resolver (expand) -->
<g id="node22" class="node">
<title>[root] aws_vpc_dhcp_options.dns_resolver (expand)</title>
<polygon fill="none" stroke="black" points="354.66,-108 82.66,-108 82.66,-72 354.66,-72 354.66,-108"/>
<text text-anchor="middle" x="218.66" y="-86.3" font-family="Times,serif" font-size="14.00">aws_vpc_dhcp_options.dns_resolver</text>
</g>
<!-- [root] aws_vpc_dhcp_options.dns_resolver (expand)&#45;&gt;[root] provider[&quot;registry.terraform.io/hashicorp/aws&quot;] -->
<g id="edge31" class="edge">
<title>[root] aws_vpc_dhcp_options.dns_resolver (expand)&#45;&gt;[root] provider[&quot;registry.terraform.io/hashicorp/aws&quot;]</title>
<path fill="none" stroke="black" d="M355.07,-76.49C497.15,-63.45 717.87,-43.2 855.87,-30.54"/>
<polygon fill="black" stroke="black" points="856.43,-34 866.07,-29.6 855.79,-27.03 856.43,-34"/>
</g>
<!-- [root] provider[&quot;registry.terraform.io/hashicorp/cloudinit&quot;] -->
<g id="node28" class="node">
<title>[root] provider[&quot;registry.terraform.io/hashicorp/cloudinit&quot;]</title>
<polygon fill="none" stroke="black" points="2555.66,-108 2198.06,-90 2555.66,-72 2913.27,-90 2555.66,-108"/>
<text text-anchor="middle" x="2555.66" y="-86.3" font-family="Times,serif" font-size="14.00">provider[&quot;registry.terraform.io/hashicorp/cloudinit&quot;]</text>
</g>
<!-- [root] data.cloudinit_config.server_config (expand)&#45;&gt;[root] provider[&quot;registry.terraform.io/hashicorp/cloudinit&quot;] -->
<g id="edge32" class="edge">
<title>[root] data.cloudinit_config.server_config (expand)&#45;&gt;[root] provider[&quot;registry.terraform.io/hashicorp/cloudinit&quot;]</title>
<path fill="none" stroke="black" d="M2555.66,-143.7C2555.66,-135.98 2555.66,-126.71 2555.66,-118.11"/>
<polygon fill="black" stroke="black" points="2559.16,-118.1 2555.66,-108.1 2552.16,-118.1 2559.16,-118.1"/>
</g>
<!-- [root] local_file.ip (expand) -->
<g id="node24" class="node">
<title>[root] local_file.ip (expand)</title>
<polygon fill="none" stroke="black" points="2006.66,-324 1910.66,-324 1910.66,-288 2006.66,-288 2006.66,-324"/>
<text text-anchor="middle" x="1958.66" y="-302.3" font-family="Times,serif" font-size="14.00">local_file.ip</text>
</g>
<!-- [root] local_file.ip (expand)&#45;&gt;[root] aws_instance.Domino_instance (expand) -->
<g id="edge33" class="edge">
<title>[root] local_file.ip (expand)&#45;&gt;[root] aws_instance.Domino_instance (expand)</title>
<path fill="none" stroke="black" d="M1910.46,-296.28C1893.77,-293.42 1874.92,-290.37 1857.66,-288 1732.99,-270.88 1590.08,-256.15 1489.6,-246.59"/>
<polygon fill="black" stroke="black" points="1489.69,-243.08 1479.4,-245.63 1489.03,-250.05 1489.69,-243.08"/>
</g>
<!-- [root] provider[&quot;registry.terraform.io/hashicorp/local&quot;] -->
<g id="node29" class="node">
<title>[root] provider[&quot;registry.terraform.io/hashicorp/local&quot;]</title>
<polygon fill="none" stroke="black" points="2234.66,-252 1904.71,-234 2234.66,-216 2564.62,-234 2234.66,-252"/>
<text text-anchor="middle" x="2234.66" y="-230.3" font-family="Times,serif" font-size="14.00">provider[&quot;registry.terraform.io/hashicorp/local&quot;]</text>
</g>
<!-- [root] local_file.ip (expand)&#45;&gt;[root] provider[&quot;registry.terraform.io/hashicorp/local&quot;] -->
<g id="edge34" class="edge">
<title>[root] local_file.ip (expand)&#45;&gt;[root] provider[&quot;registry.terraform.io/hashicorp/local&quot;]</title>
<path fill="none" stroke="black" d="M2006.74,-292.81C2051.77,-281.39 2119.42,-264.23 2169.33,-251.57"/>
<polygon fill="black" stroke="black" points="2170.23,-254.95 2179.07,-249.1 2168.51,-248.17 2170.23,-254.95"/>
</g>
<!-- [root] output.IP_publica -->
<g id="node25" class="node">
<title>[root] output.IP_publica</title>
<polygon fill="none" stroke="black" points="1638.66,-396 1502.66,-396 1502.66,-360 1644.66,-360 1644.66,-390 1638.66,-396"/>
<polyline fill="none" stroke="black" points="1638.66,-396 1638.66,-390 "/>
<polyline fill="none" stroke="black" points="1644.66,-390 1638.66,-390 "/>
<text text-anchor="middle" x="1573.66" y="-374.3" font-family="Times,serif" font-size="14.00">output.IP_publica</text>
</g>
<!-- [root] output.IP_publica&#45;&gt;[root] aws_instance.Domino_instance (expand) -->
<g id="edge35" class="edge">
<title>[root] output.IP_publica&#45;&gt;[root] aws_instance.Domino_instance (expand)</title>
<path fill="none" stroke="black" d="M1568.08,-359.73C1560.75,-339.7 1546,-307 1522.66,-288 1504.87,-273.52 1483,-262.94 1461.15,-255.24"/>
<polygon fill="black" stroke="black" points="1462.05,-251.86 1451.46,-252.01 1459.84,-258.49 1462.05,-251.86"/>
</g>
<!-- [root] output.dns_publica -->
<g id="node26" class="node">
<title>[root] output.dns_publica</title>
<polygon fill="none" stroke="black" points="1478.66,-396 1332.66,-396 1332.66,-360 1484.66,-360 1484.66,-390 1478.66,-396"/>
<polyline fill="none" stroke="black" points="1478.66,-396 1478.66,-390 "/>
<polyline fill="none" stroke="black" points="1484.66,-390 1478.66,-390 "/>
<text text-anchor="middle" x="1408.66" y="-374.3" font-family="Times,serif" font-size="14.00">output.dns_publica</text>
</g>
<!-- [root] output.dns_publica&#45;&gt;[root] aws_instance.Domino_instance (expand) -->
<g id="edge36" class="edge">
<title>[root] output.dns_publica&#45;&gt;[root] aws_instance.Domino_instance (expand)</title>
<path fill="none" stroke="black" d="M1462.68,-359.96C1479.43,-351.85 1496.02,-340.26 1505.66,-324 1513.82,-310.24 1514.83,-301.11 1505.66,-288 1495.9,-274.04 1482.06,-263.75 1466.76,-256.16"/>
<polygon fill="black" stroke="black" points="1468.15,-252.95 1457.6,-252 1465.25,-259.32 1468.15,-252.95"/>
</g>
<!-- [root] provider[&quot;registry.terraform.io/hashicorp/aws&quot;] (close) -->
<g id="node30" class="node">
<title>[root] provider[&quot;registry.terraform.io/hashicorp/aws&quot;] (close)</title>
<ellipse fill="none" stroke="black" cx="919.66" cy="-378" rx="291.65" ry="18"/>
<text text-anchor="middle" x="919.66" y="-374.3" font-family="Times,serif" font-size="14.00">[root] provider[&quot;registry.terraform.io/hashicorp/aws&quot;] (close)</text>
</g>
<!-- [root] provider[&quot;registry.terraform.io/hashicorp/aws&quot;] (close)&#45;&gt;[root] aws_iam_role_policy_attachment.dev&#45;resources&#45;ssm&#45;policy (expand) -->
<g id="edge37" class="edge">
<title>[root] provider[&quot;registry.terraform.io/hashicorp/aws&quot;] (close)&#45;&gt;[root] aws_iam_role_policy_attachment.dev&#45;resources&#45;ssm&#45;policy (expand)</title>
<path fill="none" stroke="black" d="M1151.53,-367.04C1424.73,-354.85 1843.64,-334.54 1857.66,-324 1898.34,-293.43 1857.34,-249.47 1895.66,-216 1912.52,-201.27 1954.32,-190.04 1999.42,-181.79"/>
<polygon fill="black" stroke="black" points="2000.16,-185.22 2009.39,-180.02 1998.94,-178.32 2000.16,-185.22"/>
</g>
<!-- [root] provider[&quot;registry.terraform.io/hashicorp/aws&quot;] (close)&#45;&gt;[root] aws_route_table_association.public_1_rt_a (expand) -->
<g id="edge38" class="edge">
<title>[root] provider[&quot;registry.terraform.io/hashicorp/aws&quot;] (close)&#45;&gt;[root] aws_route_table_association.public_1_rt_a (expand)</title>
<path fill="none" stroke="black" d="M775.64,-362.33C666.51,-351.21 516.26,-335.9 401.47,-324.2"/>
<polygon fill="black" stroke="black" points="401.48,-320.68 391.18,-323.15 400.77,-327.65 401.48,-320.68"/>
</g>
<!-- [root] provider[&quot;registry.terraform.io/hashicorp/aws&quot;] (close)&#45;&gt;[root] aws_subnet.some_private_subnet (expand) -->
<g id="edge39" class="edge">
<title>[root] provider[&quot;registry.terraform.io/hashicorp/aws&quot;] (close)&#45;&gt;[root] aws_subnet.some_private_subnet (expand)</title>
<path fill="none" stroke="black" d="M662,-369.52C417.79,-361.14 85.15,-345.8 64.66,-324 23.76,-280.48 91.36,-219.13 135.75,-186.14"/>
<polygon fill="black" stroke="black" points="137.98,-188.84 144.01,-180.13 133.86,-183.18 137.98,-188.84"/>
</g>
<!-- [root] provider[&quot;registry.terraform.io/hashicorp/aws&quot;] (close)&#45;&gt;[root] aws_volume_attachment.volumeB (expand) -->
<g id="edge40" class="edge">
<title>[root] provider[&quot;registry.terraform.io/hashicorp/aws&quot;] (close)&#45;&gt;[root] aws_volume_attachment.volumeB (expand)</title>
<path fill="none" stroke="black" d="M1021.32,-361.12C1088.74,-350.58 1177.49,-336.71 1248.27,-325.65"/>
<polygon fill="black" stroke="black" points="1249.24,-329.05 1258.58,-324.04 1248.16,-322.13 1249.24,-329.05"/>
</g>
<!-- [root] provider[&quot;registry.terraform.io/hashicorp/aws&quot;] (close)&#45;&gt;[root] aws_volume_attachment.volumeC (expand) -->
<g id="edge41" class="edge">
<title>[root] provider[&quot;registry.terraform.io/hashicorp/aws&quot;] (close)&#45;&gt;[root] aws_volume_attachment.volumeC (expand)</title>
<path fill="none" stroke="black" d="M1080.11,-362.96C1226.51,-350.15 1440.7,-331.41 1580.14,-319.21"/>
<polygon fill="black" stroke="black" points="1580.81,-322.66 1590.47,-318.3 1580.2,-315.69 1580.81,-322.66"/>
</g>
<!-- [root] provider[&quot;registry.terraform.io/hashicorp/aws&quot;] (close)&#45;&gt;[root] aws_volume_attachment.volumeD (expand) -->
<g id="edge42" class="edge">
<title>[root] provider[&quot;registry.terraform.io/hashicorp/aws&quot;] (close)&#45;&gt;[root] aws_volume_attachment.volumeD (expand)</title>
<path fill="none" stroke="black" d="M831.29,-360.76C774.56,-350.34 700.68,-336.77 641.34,-325.86"/>
<polygon fill="black" stroke="black" points="641.66,-322.37 631.19,-324 640.4,-329.25 641.66,-322.37"/>
</g>
<!-- [root] provider[&quot;registry.terraform.io/hashicorp/aws&quot;] (close)&#45;&gt;[root] aws_volume_attachment.volumeE (expand) -->
<g id="edge43" class="edge">
<title>[root] provider[&quot;registry.terraform.io/hashicorp/aws&quot;] (close)&#45;&gt;[root] aws_volume_attachment.volumeE (expand)</title>
<path fill="none" stroke="black" d="M894.49,-360.05C880.92,-350.92 863.99,-339.53 849.31,-329.65"/>
<polygon fill="black" stroke="black" points="851.22,-326.71 840.96,-324.03 847.31,-332.52 851.22,-326.71"/>
</g>
<!-- [root] provider[&quot;registry.terraform.io/hashicorp/aws&quot;] (close)&#45;&gt;[root] aws_volume_attachment.volumeF (expand) -->
<g id="edge44" class="edge">
<title>[root] provider[&quot;registry.terraform.io/hashicorp/aws&quot;] (close)&#45;&gt;[root] aws_volume_attachment.volumeF (expand)</title>
<path fill="none" stroke="black" d="M961.3,-360.05C985.1,-350.37 1015.15,-338.14 1040.39,-327.86"/>
<polygon fill="black" stroke="black" points="1041.87,-331.04 1049.81,-324.03 1039.23,-324.56 1041.87,-331.04"/>
</g>
<!-- [root] provider[&quot;registry.terraform.io/hashicorp/aws&quot;] (close)&#45;&gt;[root] aws_vpc_dhcp_options.dns_resolver (expand) -->
<g id="edge45" class="edge">
<title>[root] provider[&quot;registry.terraform.io/hashicorp/aws&quot;] (close)&#45;&gt;[root] aws_vpc_dhcp_options.dns_resolver (expand)</title>
<path fill="none" stroke="black" d="M663.17,-369.38C414.31,-360.78 70.9,-345.16 48.66,-324 -9.53,-268.64 -15.73,-208.1 32.66,-144 43.08,-130.19 75.26,-118.91 109.99,-110.36"/>
<polygon fill="black" stroke="black" points="110.91,-113.74 119.83,-108.02 109.29,-106.93 110.91,-113.74"/>
</g>
<!-- [root] provider[&quot;registry.terraform.io/hashicorp/cloudinit&quot;] (close) -->
<g id="node31" class="node">
<title>[root] provider[&quot;registry.terraform.io/hashicorp/cloudinit&quot;] (close)</title>
<ellipse fill="none" stroke="black" cx="2589.66" cy="-378" rx="314.64" ry="18"/>
<text text-anchor="middle" x="2589.66" y="-374.3" font-family="Times,serif" font-size="14.00">[root] provider[&quot;registry.terraform.io/hashicorp/cloudinit&quot;] (close)</text>
</g>
<!-- [root] provider[&quot;registry.terraform.io/hashicorp/cloudinit&quot;] (close)&#45;&gt;[root] data.cloudinit_config.server_config (expand) -->
<g id="edge46" class="edge">
<title>[root] provider[&quot;registry.terraform.io/hashicorp/cloudinit&quot;] (close)&#45;&gt;[root] data.cloudinit_config.server_config (expand)</title>
<path fill="none" stroke="black" d="M2589.24,-359.88C2588.23,-330.25 2584.84,-267.61 2573.66,-216 2571.79,-207.36 2568.97,-198.16 2566.12,-189.9"/>
<polygon fill="black" stroke="black" points="2569.37,-188.6 2562.69,-180.38 2562.79,-190.98 2569.37,-188.6"/>
</g>
<!-- [root] provider[&quot;registry.terraform.io/hashicorp/local&quot;] (close) -->
<g id="node32" class="node">
<title>[root] provider[&quot;registry.terraform.io/hashicorp/local&quot;] (close)</title>
<ellipse fill="none" stroke="black" cx="1958.66" cy="-378" rx="295.95" ry="18"/>
<text text-anchor="middle" x="1958.66" y="-374.3" font-family="Times,serif" font-size="14.00">[root] provider[&quot;registry.terraform.io/hashicorp/local&quot;] (close)</text>
</g>
<!-- [root] provider[&quot;registry.terraform.io/hashicorp/local&quot;] (close)&#45;&gt;[root] local_file.ip (expand) -->
<g id="edge47" class="edge">
<title>[root] provider[&quot;registry.terraform.io/hashicorp/local&quot;] (close)&#45;&gt;[root] local_file.ip (expand)</title>
<path fill="none" stroke="black" d="M1958.66,-359.7C1958.66,-351.98 1958.66,-342.71 1958.66,-334.11"/>
<polygon fill="black" stroke="black" points="1962.16,-334.1 1958.66,-324.1 1955.16,-334.1 1962.16,-334.1"/>
</g>
<!-- [root] root -->
<g id="node33" class="node">
<title>[root] root</title>
<ellipse fill="none" stroke="black" cx="1573.66" cy="-450" rx="58.49" ry="18"/>
<text text-anchor="middle" x="1573.66" y="-446.3" font-family="Times,serif" font-size="14.00">[root] root</text>
</g>
<!-- [root] root&#45;&gt;[root] output.IP_publica -->
<g id="edge48" class="edge">
<title>[root] root&#45;&gt;[root] output.IP_publica</title>
<path fill="none" stroke="black" d="M1573.66,-431.7C1573.66,-423.98 1573.66,-414.71 1573.66,-406.11"/>
<polygon fill="black" stroke="black" points="1577.16,-406.1 1573.66,-396.1 1570.16,-406.1 1577.16,-406.1"/>
</g>
<!-- [root] root&#45;&gt;[root] output.dns_publica -->
<g id="edge49" class="edge">
<title>[root] root&#45;&gt;[root] output.dns_publica</title>
<path fill="none" stroke="black" d="M1540.67,-435C1517.13,-425.02 1485.06,-411.41 1458.43,-400.11"/>
<polygon fill="black" stroke="black" points="1459.46,-396.75 1448.89,-396.07 1456.73,-403.19 1459.46,-396.75"/>
</g>
<!-- [root] root&#45;&gt;[root] provider[&quot;registry.terraform.io/hashicorp/aws&quot;] (close) -->
<g id="edge50" class="edge">
<title>[root] root&#45;&gt;[root] provider[&quot;registry.terraform.io/hashicorp/aws&quot;] (close)</title>
<path fill="none" stroke="black" d="M1519.31,-443.18C1421.35,-432.7 1212.06,-410.3 1068.58,-394.94"/>
<polygon fill="black" stroke="black" points="1068.68,-391.43 1058.36,-393.85 1067.93,-398.39 1068.68,-391.43"/>
</g>
<!-- [root] root&#45;&gt;[root] provider[&quot;registry.terraform.io/hashicorp/cloudinit&quot;] (close) -->
<g id="edge51" class="edge">
<title>[root] root&#45;&gt;[root] provider[&quot;registry.terraform.io/hashicorp/cloudinit&quot;] (close)</title>
<path fill="none" stroke="black" d="M1630.1,-445.11C1772.17,-435.32 2150.11,-409.28 2387.07,-392.96"/>
<polygon fill="black" stroke="black" points="2387.46,-396.44 2397.19,-392.26 2386.97,-389.46 2387.46,-396.44"/>
</g>
<!-- [root] root&#45;&gt;[root] provider[&quot;registry.terraform.io/hashicorp/local&quot;] (close) -->
<g id="edge52" class="edge">
<title>[root] root&#45;&gt;[root] provider[&quot;registry.terraform.io/hashicorp/local&quot;] (close)</title>
<path fill="none" stroke="black" d="M1622.81,-440.06C1682.18,-429.27 1783.51,-410.85 1859.37,-397.05"/>
<polygon fill="black" stroke="black" points="1860.22,-400.46 1869.43,-395.22 1858.97,-393.57 1860.22,-400.46"/>
</g>
</g>
</svg>
